<svg id="visual" viewBox="0 0 900 600" width="900" height="600" xmlns="http://www.w3.org/2000/svg"
     xmlns:xlink="http://www.w3.org/1999/xlink" version="1.1">
    <path d="M0 199L18.8 190C37.7 181 75.3 163 112.8 167C150.3 171 187.7 197 225.2 200C262.7 203 300.3 183 337.8 156C375.3 129 412.7 95 450.2 88C487.7 81 525.3 101 562.8 104C600.3 107 637.7 93 675.2 113C712.7 133 750.3 187 787.8 216C825.3 245 862.7 249 881.3 251L900 253L900 0L881.3 0C862.7 0 825.3 0 787.8 0C750.3 0 712.7 0 675.2 0C637.7 0 600.3 0 562.8 0C525.3 0 487.7 0 450.2 0C412.7 0 375.3 0 337.8 0C300.3 0 262.7 0 225.2 0C187.7 0 150.3 0 112.8 0C75.3 0 37.7 0 18.8 0L0 0Z"
          fill="#b9b1d8"></path>
    <path d="M0 349L18.8 359C37.7 369 75.3 389 112.8 381C150.3 373 187.7 337 225.2 317C262.7 297 300.3 293 337.8 297C375.3 301 412.7 313 450.2 321C487.7 329 525.3 333 562.8 342C600.3 351 637.7 365 675.2 367C712.7 369 750.3 359 787.8 360C825.3 361 862.7 373 881.3 379L900 385L900 251L881.3 249C862.7 247 825.3 243 787.8 214C750.3 185 712.7 131 675.2 111C637.7 91 600.3 105 562.8 102C525.3 99 487.7 79 450.2 86C412.7 93 375.3 127 337.8 154C300.3 181 262.7 201 225.2 198C187.7 195 150.3 169 112.8 165C75.3 161 37.7 179 18.8 188L0 197Z"
          fill="#a9a0d0"></path>
    <path d="M0 451L18.8 454C37.7 457 75.3 463 112.8 453C150.3 443 187.7 417 225.2 403C262.7 389 300.3 387 337.8 386C375.3 385 412.7 385 450.2 399C487.7 413 525.3 441 562.8 454C600.3 467 637.7 465 675.2 465C712.7 465 750.3 467 787.8 468C825.3 469 862.7 469 881.3 469L900 469L900 383L881.3 377C862.7 371 825.3 359 787.8 358C750.3 357 712.7 367 675.2 365C637.7 363 600.3 349 562.8 340C525.3 331 487.7 327 450.2 319C412.7 311 375.3 299 337.8 295C300.3 291 262.7 295 225.2 315C187.7 335 150.3 371 112.8 379C75.3 387 37.7 367 18.8 357L0 347Z"
          fill="#998fc7"></path>
    <path d="M0 559L18.8 556C37.7 553 75.3 547 112.8 536C150.3 525 187.7 509 225.2 503C262.7 497 300.3 501 337.8 501C375.3 501 412.7 497 450.2 499C487.7 501 525.3 509 562.8 521C600.3 533 637.7 549 675.2 553C712.7 557 750.3 549 787.8 544C825.3 539 862.7 537 881.3 536L900 535L900 467L881.3 467C862.7 467 825.3 467 787.8 466C750.3 465 712.7 463 675.2 463C637.7 463 600.3 465 562.8 452C525.3 439 487.7 411 450.2 397C412.7 383 375.3 383 337.8 384C300.3 385 262.7 387 225.2 401C187.7 415 150.3 441 112.8 451C75.3 461 37.7 455 18.8 452L0 449Z"
          fill="#847aad"></path>
    <path d="M0 601L18.8 601C37.7 601 75.3 601 112.8 601C150.3 601 187.7 601 225.2 601C262.7 601 300.3 601 337.8 601C375.3 601 412.7 601 450.2 601C487.7 601 525.3 601 562.8 601C600.3 601 637.7 601 675.2 601C712.7 601 750.3 601 787.8 601C825.3 601 862.7 601 881.3 601L900 601L900 533L881.3 534C862.7 535 825.3 537 787.8 542C750.3 547 712.7 555 675.2 551C637.7 547 600.3 531 562.8 519C525.3 507 487.7 499 450.2 497C412.7 495 375.3 499 337.8 499C300.3 499 262.7 495 225.2 501C187.7 507 150.3 523 112.8 534C75.3 545 37.7 551 18.8 554L0 557Z"
          fill="#6f6694"></path>
</svg>
